<svg width="16" height="16" viewBox="0 0 16 16" fill="none" xmlns="http://www.w3.org/2000/svg">
<g clip-path="url(#clip0_34_296)">
<path d="M24.4167 6.41667H8.58333V-9.41667C8.58333 -9.83659 8.41652 -10.2393 8.11959 -10.5363C7.82265 -10.8332 7.41993 -11 7 -11V-11C6.58007 -11 6.17735 -10.8332 5.88041 -10.5363C5.58348 -10.2393 5.41667 -9.83659 5.41667 -9.41667V6.41667H-10.4167C-10.8366 6.41667 -11.2393 6.58348 -11.5363 6.88041C-11.8332 7.17735 -12 7.58007 -12 8V8C-12 8.41993 -11.8332 8.82265 -11.5363 9.11959C-11.2393 9.41652 -10.8366 9.58333 -10.4167 9.58333H5.41667V25.4167C5.41667 25.8366 5.58348 26.2393 5.88041 26.5363C6.17735 26.8332 6.58007 27 7 27C7.41993 27 7.82265 26.8332 8.11959 26.5363C8.41652 26.2393 8.58333 25.8366 8.58333 25.4167V9.58333H24.4167C24.8366 9.58333 25.2393 9.41652 25.5363 9.11959C25.8332 8.82265 26 8.41993 26 8C26 7.58007 25.8332 7.17735 25.5363 6.88041C25.2393 6.58348 24.8366 6.41667 24.4167 6.41667Z" fill="white"/>
</g>
<defs>
<clipPath id="clip0_34_296">
<rect width="16" height="16" fill="white"/>
</clipPath>
</defs>
</svg>
